<?xml version="1.0" encoding="UTF-8" standalone="no"?>
<!DOCTYPE svg PUBLIC "-//W3C//DTD SVG 1.1//EN" "http://www.w3.org/Graphics/SVG/1.1/DTD/svg11.dtd">
<svg xmlns="http://www.w3.org/2000/svg" version="1.1" viewBox="0 0 1024 1024">
<path fill="#fdfdfd" d="M 0.00,0.00 Q 512.00,0.00 1024.00,0.00 Q 1024.00,512.00 1024.00,1024.00 Q 512.00,1024.00 0.00,1024.00 Q 0.00,512.00 0.00,0.00 ZM 666.00,650.79 Q 665.70,651.46 665.00,651.53 Q 640.75,654.23 616.45,656.56 Q 604.72,657.69 596.55,658.54 Q 479.79,670.79 444.25,674.75 Q 360.04,684.13 274.28,692.90 Q 272.89,693.04 273.76,694.14 Q 318.32,750.19 383.60,780.21 Q 392.85,784.47 402.05,787.90 Q 448.01,805.07 498.25,806.50 Q 601.24,809.42 683.37,751.33 Q 691.70,745.44 699.24,739.17 Q 725.48,717.35 747.19,689.19 Q 794.79,627.43 807.35,549.61 Q 807.65,547.76 805.92,548.49 Q 790.33,555.16 778.98,569.20 Q 756.50,596.97 760.50,633.00 Q 760.56,633.58 760.25,633.79 Q 730.16,626.29 714.12,599.85 Q 707.97,589.71 704.75,577.50 Q 698.93,555.41 706.19,534.23 Q 712.74,515.16 728.44,504.19 Q 743.44,493.70 761.34,494.49 Q 771.25,494.93 780.66,499.10 Q 798.43,506.96 808.58,524.38 Q 809.44,525.85 809.49,524.15 Q 810.32,496.35 806.11,468.32 A 1.61,1.61 -84.2 0 0 805.07,467.04 Q 751.27,446.83 697.57,427.02 Q 685.01,422.39 678.46,421.25 Q 666.90,419.23 656.25,421.00 Q 641.25,423.49 630.56,431.31 Q 621.01,438.31 614.00,447.00 Q 598.84,465.80 591.83,489.40 Q 582.44,520.96 588.10,553.48 Q 595.17,594.11 622.02,625.13 Q 622.77,626.00 621.62,626.00 Q 461.62,626.00 301.75,625.80 Q 296.78,625.80 292.07,627.74 A 2.53,2.52 55.9 0 1 289.35,627.21 Q 281.22,619.25 277.29,609.58 Q 273.53,600.35 273.87,590.04 Q 274.47,572.00 288.50,559.79 Q 291.25,557.40 295.07,555.53 Q 297.93,554.14 302.19,552.19 Q 311.15,548.07 318.12,540.13 Q 324.27,533.12 329.44,523.94 Q 338.83,507.25 353.30,483.06 Q 357.00,476.85 359.31,473.81 Q 361.78,470.55 365.51,468.53 Q 365.80,468.37 372.88,465.37 Q 558.34,386.74 593.50,371.75 Q 635.82,353.71 680.09,363.80 Q 684.05,364.71 687.81,366.06 Q 691.59,367.42 695.29,369.00 Q 742.62,389.14 790.15,409.40 Q 790.62,409.60 790.45,409.12 Q 783.02,387.66 771.68,367.81 Q 727.18,289.87 648.14,249.02 Q 639.18,244.39 630.05,240.52 Q 578.90,218.84 523.25,216.72 Q 513.23,216.34 503.24,216.48 Q 462.01,217.07 423.00,228.50 Q 336.21,253.93 277.75,323.25 Q 222.88,388.31 211.43,473.32 Q 210.09,483.30 209.46,493.22 Q 204.20,576.61 244.18,650.40 A 0.67,0.67 -14.2 0 0 244.77,650.75 Q 371.75,650.75 498.75,650.95 Q 582.38,651.08 666.00,650.79 ZM 364.72,549.39 A 3.25,3.23 57.9 0 0 367.38,550.01 Q 444.11,533.76 519.83,517.12 Q 523.71,516.27 525.49,514.55 Q 528.01,512.12 529.50,508.00 Q 540.34,477.90 563.49,420.39 Q 564.58,417.68 565.64,415.24 Q 566.07,414.27 565.07,414.63 Q 475.73,447.18 386.95,480.24 Q 386.88,480.27 385.52,480.64 Q 383.16,481.30 382.25,484.25 Q 372.73,515.13 364.04,546.26 Q 363.45,548.39 364.72,549.39 ZM 337.43,554.77 Q 343.58,554.22 349.51,552.52 Q 351.82,551.86 352.97,550.61 Q 354.38,549.10 354.99,547.00 Q 363.47,518.04 372.48,489.31 Q 373.54,485.94 370.27,487.24 L 352.92,494.14 Q 351.10,494.86 350.50,496.76 Q 342.14,523.44 335.03,550.68 Q 334.69,551.98 335.04,552.82 Q 335.48,553.90 336.50,554.56 A 1.55,1.30 -27.3 0 0 337.43,554.77 Z"/>
<path fill="#003a8f" d="M 760.25,633.79 Q 763.27,635.16 766.25,635.00 Q 771.43,634.72 772.94,638.56 Q 773.94,641.08 773.84,643.46 Q 773.75,645.76 772.24,648.42 Q 771.21,650.23 769.13,650.27 Q 738.25,650.84 706.50,650.25 Q 700.01,650.13 666.00,650.79 Q 582.38,651.08 498.75,650.95 Q 371.75,650.75 244.77,650.75 A 0.67,0.67 -14.2 0 1 244.18,650.40 Q 204.20,576.61 209.46,493.22 Q 210.09,483.30 211.43,473.32 Q 222.88,388.31 277.75,323.25 Q 336.21,253.93 423.00,228.50 Q 462.01,217.07 503.24,216.48 Q 513.23,216.34 523.25,216.72 Q 578.90,218.84 630.05,240.52 Q 639.18,244.39 648.14,249.02 Q 727.18,289.87 771.68,367.81 Q 783.02,387.66 790.45,409.12 Q 790.62,409.60 790.15,409.40 Q 742.62,389.14 695.29,369.00 Q 691.59,367.42 687.81,366.06 Q 684.05,364.71 680.09,363.80 Q 635.82,353.71 593.50,371.75 Q 558.34,386.74 372.88,465.37 Q 365.80,468.37 365.51,468.53 Q 361.78,470.55 359.31,473.81 Q 357.00,476.85 353.30,483.06 Q 338.83,507.25 329.44,523.94 Q 324.27,533.12 318.12,540.13 Q 311.15,548.07 302.19,552.19 Q 297.93,554.14 295.07,555.53 Q 291.25,557.40 288.50,559.79 Q 274.47,572.00 273.87,590.04 Q 273.53,600.35 277.29,609.58 Q 281.22,619.25 289.35,627.21 A 2.53,2.52 55.9 0 0 292.07,627.74 Q 296.78,625.80 301.75,625.80 Q 461.62,626.00 621.62,626.00 Q 622.77,626.00 622.02,625.13 Q 595.17,594.11 588.10,553.48 Q 582.44,520.96 591.83,489.40 Q 598.84,465.80 614.00,447.00 Q 621.01,438.31 630.56,431.31 Q 641.25,423.49 656.25,421.00 Q 666.90,419.23 678.46,421.25 Q 685.01,422.39 697.57,427.02 Q 751.27,446.83 805.07,467.04 A 1.61,1.61 -84.2 0 1 806.11,468.32 Q 810.32,496.35 809.49,524.15 Q 809.44,525.85 808.58,524.38 Q 798.43,506.96 780.66,499.10 Q 771.25,494.93 761.34,494.49 Q 743.44,493.70 728.44,504.19 Q 712.74,515.16 706.19,534.23 Q 698.93,555.41 704.75,577.50 Q 707.97,589.71 714.12,599.85 Q 730.16,626.29 760.25,633.79 Z"/>
<path fill="#003a8e" d="M 364.72,549.39 Q 363.45,548.39 364.04,546.26 Q 372.73,515.13 382.25,484.25 Q 383.16,481.30 385.52,480.64 Q 386.88,480.27 386.95,480.24 Q 475.73,447.18 565.07,414.63 Q 566.07,414.27 565.64,415.24 Q 564.58,417.68 563.49,420.39 Q 540.34,477.90 529.50,508.00 Q 528.01,512.12 525.49,514.55 Q 523.71,516.27 519.83,517.12 Q 444.11,533.76 367.38,550.01 A 3.25,3.23 57.9 0 1 364.72,549.39 Z"/>
<path fill="#003a8f" d="M 336.50,554.56 Q 335.48,553.90 335.04,552.82 Q 334.69,551.98 335.03,550.68 Q 342.14,523.44 350.50,496.76 Q 351.10,494.86 352.92,494.14 L 370.27,487.24 Q 373.54,485.94 372.48,489.31 Q 363.47,518.04 354.99,547.00 Q 354.38,549.10 352.97,550.61 Q 351.82,551.86 349.51,552.52 Q 343.58,554.22 337.43,554.77 A 1.55,1.30 -27.3 0 1 336.50,554.56 Z"/>
<path fill="#0d8dec" d="M 666.00,650.79 Q 700.01,650.13 706.50,650.25 Q 738.25,650.84 769.13,650.27 Q 771.21,650.23 772.24,648.42 Q 773.75,645.76 773.84,643.46 Q 773.94,641.08 772.94,638.56 Q 771.43,634.72 766.25,635.00 Q 763.27,635.16 760.25,633.79 Q 760.56,633.58 760.50,633.00 Q 756.50,596.97 778.98,569.20 Q 790.33,555.16 805.92,548.49 Q 807.65,547.76 807.35,549.61 Q 794.79,627.43 747.19,689.19 Q 725.48,717.35 699.24,739.17 Q 691.70,745.44 683.37,751.33 Q 601.24,809.42 498.25,806.50 Q 448.01,805.07 402.05,787.90 Q 392.85,784.47 383.60,780.21 Q 318.32,750.19 273.76,694.14 Q 272.89,693.04 274.28,692.90 Q 360.04,684.13 444.25,674.75 Q 479.79,670.79 596.55,658.54 Q 604.72,657.69 616.45,656.56 Q 640.75,654.23 665.00,651.53 Q 665.70,651.46 666.00,650.79 Z"/>
</svg>
